<mxfile host="app.diagrams.net" modified="2024-07-22T18:51:12.059Z" agent="Mozilla/5.0 (Windows NT 10.0; Win64; x64) AppleWebKit/537.36 (KHTML, like Gecko) Chrome/126.0.0.0 Safari/537.36 Edg/126.0.0.0" etag="rxTRzq7d38ICcqFcgVia" version="24.7.1" type="device">
  <diagram name="第 1 页" id="OJm_Z1sBrJ7MppDvIbpe">
    <mxGraphModel dx="983" dy="523" grid="1" gridSize="10" guides="1" tooltips="1" connect="1" arrows="1" fold="1" page="1" pageScale="1" pageWidth="1654" pageHeight="1169" math="0" shadow="0">
      <root>
        <mxCell id="0" />
        <mxCell id="1" parent="0" />
        <mxCell id="BQTnRoCBnfdFkUYYNRUX-77" value="" style="rounded=0;whiteSpace=wrap;html=1;" vertex="1" parent="1">
          <mxGeometry x="400" y="190" width="570" height="460" as="geometry" />
        </mxCell>
        <mxCell id="BQTnRoCBnfdFkUYYNRUX-21" style="rounded=0;orthogonalLoop=1;jettySize=auto;html=1;entryX=0;entryY=0.25;entryDx=0;entryDy=0;" edge="1" parent="1" target="BQTnRoCBnfdFkUYYNRUX-1">
          <mxGeometry relative="1" as="geometry">
            <mxPoint x="330" y="310" as="sourcePoint" />
          </mxGeometry>
        </mxCell>
        <mxCell id="BQTnRoCBnfdFkUYYNRUX-22" value="sys_clk" style="edgeLabel;html=1;align=center;verticalAlign=middle;resizable=0;points=[];" vertex="1" connectable="0" parent="BQTnRoCBnfdFkUYYNRUX-21">
          <mxGeometry x="-0.3294" y="-2" relative="1" as="geometry">
            <mxPoint x="-17" y="-14" as="offset" />
          </mxGeometry>
        </mxCell>
        <mxCell id="BQTnRoCBnfdFkUYYNRUX-23" style="rounded=0;orthogonalLoop=1;jettySize=auto;html=1;entryX=0;entryY=0.5;entryDx=0;entryDy=0;" edge="1" parent="1" target="BQTnRoCBnfdFkUYYNRUX-1">
          <mxGeometry relative="1" as="geometry">
            <mxPoint x="330" y="340" as="sourcePoint" />
          </mxGeometry>
        </mxCell>
        <mxCell id="BQTnRoCBnfdFkUYYNRUX-24" value="sys_rst_n" style="edgeLabel;html=1;align=center;verticalAlign=middle;resizable=0;points=[];" vertex="1" connectable="0" parent="BQTnRoCBnfdFkUYYNRUX-23">
          <mxGeometry x="-0.2671" relative="1" as="geometry">
            <mxPoint x="-19" y="-11" as="offset" />
          </mxGeometry>
        </mxCell>
        <mxCell id="BQTnRoCBnfdFkUYYNRUX-25" style="rounded=0;orthogonalLoop=1;jettySize=auto;html=1;entryX=0;entryY=0.75;entryDx=0;entryDy=0;" edge="1" parent="1" target="BQTnRoCBnfdFkUYYNRUX-1">
          <mxGeometry relative="1" as="geometry">
            <mxPoint x="330" y="367" as="sourcePoint" />
          </mxGeometry>
        </mxCell>
        <mxCell id="BQTnRoCBnfdFkUYYNRUX-26" value="rx" style="edgeLabel;html=1;align=center;verticalAlign=middle;resizable=0;points=[];" vertex="1" connectable="0" parent="BQTnRoCBnfdFkUYYNRUX-25">
          <mxGeometry x="-0.2566" y="-1" relative="1" as="geometry">
            <mxPoint x="-30" y="-10" as="offset" />
          </mxGeometry>
        </mxCell>
        <mxCell id="BQTnRoCBnfdFkUYYNRUX-1" value="uart_rx" style="rounded=0;whiteSpace=wrap;html=1;" vertex="1" parent="1">
          <mxGeometry x="490" y="284" width="120" height="110" as="geometry" />
        </mxCell>
        <mxCell id="BQTnRoCBnfdFkUYYNRUX-39" style="edgeStyle=orthogonalEdgeStyle;rounded=0;orthogonalLoop=1;jettySize=auto;html=1;exitX=0;exitY=0.5;exitDx=0;exitDy=0;startArrow=oval;startFill=1;entryX=0.001;entryY=0.459;entryDx=0;entryDy=0;entryPerimeter=0;" edge="1" parent="1" target="BQTnRoCBnfdFkUYYNRUX-3">
          <mxGeometry relative="1" as="geometry">
            <mxPoint x="700" y="410.05" as="targetPoint" />
            <mxPoint x="420" y="410.002380952381" as="sourcePoint" />
          </mxGeometry>
        </mxCell>
        <mxCell id="BQTnRoCBnfdFkUYYNRUX-42" value="sys_clk" style="edgeLabel;html=1;align=center;verticalAlign=middle;resizable=0;points=[];" vertex="1" connectable="0" parent="BQTnRoCBnfdFkUYYNRUX-39">
          <mxGeometry x="0.5689" y="2" relative="1" as="geometry">
            <mxPoint x="17" y="-9" as="offset" />
          </mxGeometry>
        </mxCell>
        <mxCell id="BQTnRoCBnfdFkUYYNRUX-41" style="edgeStyle=orthogonalEdgeStyle;rounded=0;orthogonalLoop=1;jettySize=auto;html=1;exitX=0;exitY=0.5;exitDx=0;exitDy=0;entryX=0.003;entryY=0.513;entryDx=0;entryDy=0;startArrow=oval;startFill=1;entryPerimeter=0;" edge="1" parent="1" target="BQTnRoCBnfdFkUYYNRUX-3">
          <mxGeometry relative="1" as="geometry">
            <mxPoint x="700" y="430.05" as="targetPoint" />
            <mxPoint x="450" y="430.002380952381" as="sourcePoint" />
          </mxGeometry>
        </mxCell>
        <mxCell id="BQTnRoCBnfdFkUYYNRUX-43" value="sys_rst_n" style="edgeLabel;html=1;align=center;verticalAlign=middle;resizable=0;points=[];" vertex="1" connectable="0" parent="BQTnRoCBnfdFkUYYNRUX-41">
          <mxGeometry x="0.4371" y="-1" relative="1" as="geometry">
            <mxPoint x="27" y="-12" as="offset" />
          </mxGeometry>
        </mxCell>
        <mxCell id="BQTnRoCBnfdFkUYYNRUX-3" value="" style="rounded=0;whiteSpace=wrap;html=1;align=center;" vertex="1" parent="1">
          <mxGeometry x="702" y="240" width="250" height="370" as="geometry" />
        </mxCell>
        <mxCell id="BQTnRoCBnfdFkUYYNRUX-4" value="fifo_sum_ctrl" style="text;html=1;align=center;verticalAlign=middle;resizable=0;points=[];autosize=1;strokeColor=none;fillColor=none;" vertex="1" parent="1">
          <mxGeometry x="782" y="254" width="90" height="30" as="geometry" />
        </mxCell>
        <mxCell id="BQTnRoCBnfdFkUYYNRUX-27" style="edgeStyle=orthogonalEdgeStyle;rounded=0;orthogonalLoop=1;jettySize=auto;html=1;entryX=0;entryY=0.25;entryDx=0;entryDy=0;startArrow=oval;startFill=1;" edge="1" parent="1" target="BQTnRoCBnfdFkUYYNRUX-20">
          <mxGeometry relative="1" as="geometry">
            <mxPoint x="450" y="340" as="sourcePoint" />
            <Array as="points">
              <mxPoint x="450" y="340" />
              <mxPoint x="450" y="477" />
            </Array>
          </mxGeometry>
        </mxCell>
        <mxCell id="BQTnRoCBnfdFkUYYNRUX-28" style="edgeStyle=orthogonalEdgeStyle;rounded=0;orthogonalLoop=1;jettySize=auto;html=1;exitX=0;exitY=0.5;exitDx=0;exitDy=0;entryX=0;entryY=0.5;entryDx=0;entryDy=0;startArrow=oval;startFill=1;" edge="1" parent="1" target="BQTnRoCBnfdFkUYYNRUX-20">
          <mxGeometry relative="1" as="geometry">
            <mxPoint x="420" y="310" as="sourcePoint" />
            <Array as="points">
              <mxPoint x="420" y="505" />
            </Array>
          </mxGeometry>
        </mxCell>
        <mxCell id="BQTnRoCBnfdFkUYYNRUX-29" style="edgeStyle=orthogonalEdgeStyle;rounded=0;orthogonalLoop=1;jettySize=auto;html=1;exitX=0;exitY=0.75;exitDx=0;exitDy=0;" edge="1" parent="1" source="BQTnRoCBnfdFkUYYNRUX-20">
          <mxGeometry relative="1" as="geometry">
            <mxPoint x="330" y="532" as="targetPoint" />
          </mxGeometry>
        </mxCell>
        <mxCell id="BQTnRoCBnfdFkUYYNRUX-30" value="tx" style="edgeLabel;html=1;align=center;verticalAlign=middle;resizable=0;points=[];" vertex="1" connectable="0" parent="BQTnRoCBnfdFkUYYNRUX-29">
          <mxGeometry x="-0.0764" y="-1" relative="1" as="geometry">
            <mxPoint x="-46" y="-9" as="offset" />
          </mxGeometry>
        </mxCell>
        <mxCell id="BQTnRoCBnfdFkUYYNRUX-20" value="uart_tx" style="rounded=0;whiteSpace=wrap;html=1;" vertex="1" parent="1">
          <mxGeometry x="490" y="450" width="120" height="110" as="geometry" />
        </mxCell>
        <mxCell id="BQTnRoCBnfdFkUYYNRUX-31" style="edgeStyle=orthogonalEdgeStyle;rounded=0;orthogonalLoop=1;jettySize=auto;html=1;exitX=1;exitY=0.25;exitDx=0;exitDy=0;entryX=0.004;entryY=0.191;entryDx=0;entryDy=0;entryPerimeter=0;" edge="1" parent="1" source="BQTnRoCBnfdFkUYYNRUX-1" target="BQTnRoCBnfdFkUYYNRUX-3">
          <mxGeometry relative="1" as="geometry" />
        </mxCell>
        <mxCell id="BQTnRoCBnfdFkUYYNRUX-32" value="pi_flag" style="edgeLabel;html=1;align=center;verticalAlign=middle;resizable=0;points=[];" vertex="1" connectable="0" parent="BQTnRoCBnfdFkUYYNRUX-31">
          <mxGeometry x="0.0688" relative="1" as="geometry">
            <mxPoint x="-2" y="-10" as="offset" />
          </mxGeometry>
        </mxCell>
        <mxCell id="BQTnRoCBnfdFkUYYNRUX-33" style="edgeStyle=orthogonalEdgeStyle;rounded=0;orthogonalLoop=1;jettySize=auto;html=1;exitX=1;exitY=0.75;exitDx=0;exitDy=0;entryX=0.002;entryY=0.34;entryDx=0;entryDy=0;entryPerimeter=0;" edge="1" parent="1" source="BQTnRoCBnfdFkUYYNRUX-1" target="BQTnRoCBnfdFkUYYNRUX-3">
          <mxGeometry relative="1" as="geometry" />
        </mxCell>
        <mxCell id="BQTnRoCBnfdFkUYYNRUX-34" value="pi_data" style="edgeLabel;html=1;align=center;verticalAlign=middle;resizable=0;points=[];" vertex="1" connectable="0" parent="BQTnRoCBnfdFkUYYNRUX-33">
          <mxGeometry x="0.1675" relative="1" as="geometry">
            <mxPoint x="-5" y="-10" as="offset" />
          </mxGeometry>
        </mxCell>
        <mxCell id="BQTnRoCBnfdFkUYYNRUX-35" style="edgeStyle=orthogonalEdgeStyle;rounded=0;orthogonalLoop=1;jettySize=auto;html=1;exitX=-0.003;exitY=0.643;exitDx=0;exitDy=0;entryX=1;entryY=0.25;entryDx=0;entryDy=0;exitPerimeter=0;" edge="1" parent="1" source="BQTnRoCBnfdFkUYYNRUX-3" target="BQTnRoCBnfdFkUYYNRUX-20">
          <mxGeometry relative="1" as="geometry" />
        </mxCell>
        <mxCell id="BQTnRoCBnfdFkUYYNRUX-36" value="po_flag" style="edgeLabel;html=1;align=center;verticalAlign=middle;resizable=0;points=[];" vertex="1" connectable="0" parent="BQTnRoCBnfdFkUYYNRUX-35">
          <mxGeometry x="0.2313" y="1" relative="1" as="geometry">
            <mxPoint x="16" y="-11" as="offset" />
          </mxGeometry>
        </mxCell>
        <mxCell id="BQTnRoCBnfdFkUYYNRUX-37" style="edgeStyle=orthogonalEdgeStyle;rounded=0;orthogonalLoop=1;jettySize=auto;html=1;exitX=0;exitY=0.79;exitDx=0;exitDy=0;entryX=1;entryY=0.75;entryDx=0;entryDy=0;exitPerimeter=0;" edge="1" parent="1" source="BQTnRoCBnfdFkUYYNRUX-3" target="BQTnRoCBnfdFkUYYNRUX-20">
          <mxGeometry relative="1" as="geometry" />
        </mxCell>
        <mxCell id="BQTnRoCBnfdFkUYYNRUX-38" value="po_sum" style="edgeLabel;html=1;align=center;verticalAlign=middle;resizable=0;points=[];" vertex="1" connectable="0" parent="BQTnRoCBnfdFkUYYNRUX-37">
          <mxGeometry x="-0.2143" relative="1" as="geometry">
            <mxPoint x="-6" y="-11" as="offset" />
          </mxGeometry>
        </mxCell>
        <mxCell id="BQTnRoCBnfdFkUYYNRUX-45" style="edgeStyle=orthogonalEdgeStyle;rounded=0;orthogonalLoop=1;jettySize=auto;html=1;entryX=0;entryY=0.25;entryDx=0;entryDy=0;" edge="1" parent="1">
          <mxGeometry relative="1" as="geometry">
            <mxPoint x="792" y="310.5" as="targetPoint" />
            <mxPoint x="727" y="311" as="sourcePoint" />
          </mxGeometry>
        </mxCell>
        <mxCell id="BQTnRoCBnfdFkUYYNRUX-46" value="sys_clk" style="edgeLabel;html=1;align=center;verticalAlign=middle;resizable=0;points=[];" vertex="1" connectable="0" parent="BQTnRoCBnfdFkUYYNRUX-45">
          <mxGeometry x="0.1234" relative="1" as="geometry">
            <mxPoint x="-4" y="-10" as="offset" />
          </mxGeometry>
        </mxCell>
        <mxCell id="BQTnRoCBnfdFkUYYNRUX-47" style="edgeStyle=orthogonalEdgeStyle;rounded=0;orthogonalLoop=1;jettySize=auto;html=1;entryX=0;entryY=0.5;entryDx=0;entryDy=0;" edge="1" parent="1">
          <mxGeometry relative="1" as="geometry">
            <mxPoint x="792" y="338" as="targetPoint" />
            <mxPoint x="727" y="338" as="sourcePoint" />
          </mxGeometry>
        </mxCell>
        <mxCell id="BQTnRoCBnfdFkUYYNRUX-48" value="data_in1" style="edgeLabel;html=1;align=center;verticalAlign=middle;resizable=0;points=[];" vertex="1" connectable="0" parent="BQTnRoCBnfdFkUYYNRUX-47">
          <mxGeometry x="-0.2745" relative="1" as="geometry">
            <mxPoint x="7" y="-10" as="offset" />
          </mxGeometry>
        </mxCell>
        <mxCell id="BQTnRoCBnfdFkUYYNRUX-49" style="edgeStyle=orthogonalEdgeStyle;rounded=0;orthogonalLoop=1;jettySize=auto;html=1;entryX=0;entryY=0.75;entryDx=0;entryDy=0;" edge="1" parent="1">
          <mxGeometry relative="1" as="geometry">
            <mxPoint x="792" y="365.5" as="targetPoint" />
            <mxPoint x="727" y="366" as="sourcePoint" />
          </mxGeometry>
        </mxCell>
        <mxCell id="BQTnRoCBnfdFkUYYNRUX-50" value="wr_en1" style="edgeLabel;html=1;align=center;verticalAlign=middle;resizable=0;points=[];" vertex="1" connectable="0" parent="BQTnRoCBnfdFkUYYNRUX-49">
          <mxGeometry x="-0.2002" y="2" relative="1" as="geometry">
            <mxPoint x="5" y="-8" as="offset" />
          </mxGeometry>
        </mxCell>
        <mxCell id="BQTnRoCBnfdFkUYYNRUX-51" style="edgeStyle=orthogonalEdgeStyle;rounded=0;orthogonalLoop=1;jettySize=auto;html=1;entryX=0;entryY=0.75;entryDx=0;entryDy=0;" edge="1" parent="1">
          <mxGeometry relative="1" as="geometry">
            <mxPoint x="792" y="392.5" as="targetPoint" />
            <mxPoint x="727" y="393" as="sourcePoint" />
          </mxGeometry>
        </mxCell>
        <mxCell id="BQTnRoCBnfdFkUYYNRUX-52" value="rd_en" style="edgeLabel;html=1;align=center;verticalAlign=middle;resizable=0;points=[];" vertex="1" connectable="0" parent="BQTnRoCBnfdFkUYYNRUX-51">
          <mxGeometry x="-0.1258" y="-1" relative="1" as="geometry">
            <mxPoint x="1" y="-11" as="offset" />
          </mxGeometry>
        </mxCell>
        <mxCell id="BQTnRoCBnfdFkUYYNRUX-53" style="edgeStyle=orthogonalEdgeStyle;rounded=0;orthogonalLoop=1;jettySize=auto;html=1;exitX=1;exitY=0.5;exitDx=0;exitDy=0;" edge="1" parent="1" source="BQTnRoCBnfdFkUYYNRUX-44">
          <mxGeometry relative="1" as="geometry">
            <mxPoint x="927" y="352" as="targetPoint" />
          </mxGeometry>
        </mxCell>
        <mxCell id="BQTnRoCBnfdFkUYYNRUX-54" value="data_out1" style="edgeLabel;html=1;align=center;verticalAlign=middle;resizable=0;points=[];" vertex="1" connectable="0" parent="BQTnRoCBnfdFkUYYNRUX-53">
          <mxGeometry x="0.1393" y="-1" relative="1" as="geometry">
            <mxPoint x="-12" y="-11" as="offset" />
          </mxGeometry>
        </mxCell>
        <mxCell id="BQTnRoCBnfdFkUYYNRUX-44" value="fifo_data" style="rounded=0;whiteSpace=wrap;html=1;" vertex="1" parent="1">
          <mxGeometry x="792" y="287" width="65" height="130" as="geometry" />
        </mxCell>
        <mxCell id="BQTnRoCBnfdFkUYYNRUX-66" style="edgeStyle=orthogonalEdgeStyle;rounded=0;orthogonalLoop=1;jettySize=auto;html=1;entryX=0;entryY=0.25;entryDx=0;entryDy=0;" edge="1" parent="1">
          <mxGeometry relative="1" as="geometry">
            <mxPoint x="792" y="467.5" as="targetPoint" />
            <mxPoint x="727" y="468" as="sourcePoint" />
          </mxGeometry>
        </mxCell>
        <mxCell id="BQTnRoCBnfdFkUYYNRUX-67" value="sys_clk" style="edgeLabel;html=1;align=center;verticalAlign=middle;resizable=0;points=[];" vertex="1" connectable="0" parent="BQTnRoCBnfdFkUYYNRUX-66">
          <mxGeometry x="0.1234" relative="1" as="geometry">
            <mxPoint x="-4" y="-10" as="offset" />
          </mxGeometry>
        </mxCell>
        <mxCell id="BQTnRoCBnfdFkUYYNRUX-68" style="edgeStyle=orthogonalEdgeStyle;rounded=0;orthogonalLoop=1;jettySize=auto;html=1;entryX=0;entryY=0.5;entryDx=0;entryDy=0;" edge="1" parent="1">
          <mxGeometry relative="1" as="geometry">
            <mxPoint x="792" y="495" as="targetPoint" />
            <mxPoint x="727" y="495" as="sourcePoint" />
          </mxGeometry>
        </mxCell>
        <mxCell id="BQTnRoCBnfdFkUYYNRUX-69" value="data_in1" style="edgeLabel;html=1;align=center;verticalAlign=middle;resizable=0;points=[];" vertex="1" connectable="0" parent="BQTnRoCBnfdFkUYYNRUX-68">
          <mxGeometry x="-0.2745" relative="1" as="geometry">
            <mxPoint x="7" y="-10" as="offset" />
          </mxGeometry>
        </mxCell>
        <mxCell id="BQTnRoCBnfdFkUYYNRUX-70" style="edgeStyle=orthogonalEdgeStyle;rounded=0;orthogonalLoop=1;jettySize=auto;html=1;entryX=0;entryY=0.75;entryDx=0;entryDy=0;" edge="1" parent="1">
          <mxGeometry relative="1" as="geometry">
            <mxPoint x="792" y="522.5" as="targetPoint" />
            <mxPoint x="727" y="523" as="sourcePoint" />
          </mxGeometry>
        </mxCell>
        <mxCell id="BQTnRoCBnfdFkUYYNRUX-71" value="wr_en1" style="edgeLabel;html=1;align=center;verticalAlign=middle;resizable=0;points=[];" vertex="1" connectable="0" parent="BQTnRoCBnfdFkUYYNRUX-70">
          <mxGeometry x="-0.2002" y="2" relative="1" as="geometry">
            <mxPoint x="5" y="-8" as="offset" />
          </mxGeometry>
        </mxCell>
        <mxCell id="BQTnRoCBnfdFkUYYNRUX-72" style="edgeStyle=orthogonalEdgeStyle;rounded=0;orthogonalLoop=1;jettySize=auto;html=1;entryX=0;entryY=0.75;entryDx=0;entryDy=0;" edge="1" parent="1">
          <mxGeometry relative="1" as="geometry">
            <mxPoint x="792" y="549.5" as="targetPoint" />
            <mxPoint x="727" y="550" as="sourcePoint" />
          </mxGeometry>
        </mxCell>
        <mxCell id="BQTnRoCBnfdFkUYYNRUX-73" value="rd_en" style="edgeLabel;html=1;align=center;verticalAlign=middle;resizable=0;points=[];" vertex="1" connectable="0" parent="BQTnRoCBnfdFkUYYNRUX-72">
          <mxGeometry x="-0.1258" y="-1" relative="1" as="geometry">
            <mxPoint x="1" y="-11" as="offset" />
          </mxGeometry>
        </mxCell>
        <mxCell id="BQTnRoCBnfdFkUYYNRUX-74" style="edgeStyle=orthogonalEdgeStyle;rounded=0;orthogonalLoop=1;jettySize=auto;html=1;exitX=1;exitY=0.5;exitDx=0;exitDy=0;" edge="1" parent="1" source="BQTnRoCBnfdFkUYYNRUX-76">
          <mxGeometry relative="1" as="geometry">
            <mxPoint x="927" y="509" as="targetPoint" />
          </mxGeometry>
        </mxCell>
        <mxCell id="BQTnRoCBnfdFkUYYNRUX-75" value="data_out1" style="edgeLabel;html=1;align=center;verticalAlign=middle;resizable=0;points=[];" vertex="1" connectable="0" parent="BQTnRoCBnfdFkUYYNRUX-74">
          <mxGeometry x="0.1393" y="-1" relative="1" as="geometry">
            <mxPoint x="-12" y="-11" as="offset" />
          </mxGeometry>
        </mxCell>
        <mxCell id="BQTnRoCBnfdFkUYYNRUX-76" value="fifo_data" style="rounded=0;whiteSpace=wrap;html=1;" vertex="1" parent="1">
          <mxGeometry x="792" y="444" width="65" height="130" as="geometry" />
        </mxCell>
        <mxCell id="BQTnRoCBnfdFkUYYNRUX-78" value="top_module" style="text;html=1;align=center;verticalAlign=middle;resizable=0;points=[];autosize=1;strokeColor=none;fillColor=none;" vertex="1" parent="1">
          <mxGeometry x="610" y="200" width="90" height="30" as="geometry" />
        </mxCell>
      </root>
    </mxGraphModel>
  </diagram>
</mxfile>
